<?xml version="1.0" encoding="UTF-8" standalone="no"?>
<!-- Generator: Adobe Illustrator 21.0.0, SVG Export Plug-In . SVG Version: 6.00 Build 0)  -->

<svg
  id="Layer_1"
  inkscape:version="1.2.2 (b0a84865, 2022-12-01)"
  sodipodi:docname="Cc-discover-01.svg"
  style="enable-background:new 0 0 512 512;"
  version="1.1"
  viewBox="0 0 512 512"
  x="0px"
  xml:space="preserve"
  xmlns="http://www.w3.org/2000/svg"
  xmlns:inkscape="http://www.inkscape.org/namespaces/inkscape"
  xmlns:sodipodi="http://sodipodi.sourceforge.net/DTD/sodipodi-0.dtd"
  y="0px"
><defs
   id="defs16" />
  <sodipodi:namedview
    bordercolor="#666666"
    borderopacity="1.0"
    id="namedview14"
    inkscape:current-layer="Layer_1"
    inkscape:cx="253.83051"
    inkscape:cy="256"
    inkscape:deskcolor="#d1d1d1"
    inkscape:pagecheckerboard="0"
    inkscape:pageopacity="0.0"
    inkscape:showpageshadow="2"
    inkscape:window-height="512"
    inkscape:window-maximized="0"
    inkscape:window-width="512"
    inkscape:window-x="0"
    inkscape:window-y="38"
    inkscape:zoom="0.4609375"
    pagecolor="#ffffff"
    showgrid="false" />
  <g
    id="g11"
    style="fill:#ffffff">
	<path
    d="M54.9,73.1C24.8,73.1,0,97.9,0,128v256c0,30.1,24.8,54.9,54.9,54.9h402.3c30.1,0,54.9-24.8,54.9-54.9V128   c0-30.1-24.8-54.9-54.9-54.9H54.9z M54.9,109.7h402.3c10.4,0,18.3,7.9,18.3,18.3v256c0,10.4-7.9,18.3-18.3,18.3H54.9   c-10.4,0-18.3-7.9-18.3-18.3V128C36.6,117.6,44.5,109.7,54.9,109.7z M154.3,222.3c-11.4,0-20,8.3-20,18.9c0,8.9,4.2,13.3,16,17.7   c6.9,2.6,12.6,4.1,12.6,10.3c0,5.2-4.1,9.1-9.7,9.1c-6,0-10.9-2.9-13.7-8.6l-8.6,7.4c5.8,8.5,13.3,12.6,22.9,12.6   c13.1,0,21.7-8.6,21.7-21.1c0-10.3-4-15.4-18.3-20.6c-7.6-2.8-9.7-4.5-9.7-8c0-4.1,3.7-6.9,9.1-6.9c3.8,0,7,1.5,10.3,5.1l6.9-8.6   C168.3,225,161.4,222.3,154.3,222.3z M213.7,222.3c-19.1,0.1-34.3,14.9-34.3,33.7c0,18.9,15.1,33.7,34.3,33.7c5.4,0,10.3-1.3,16-4   v-14.9c-5,5-9.7,6.9-15.4,6.9c-12.6,0-21.7-9.2-21.7-22.3c0-12.4,9.4-21.7,21.1-21.7c6,0,10.8,1.7,16,6.9v-14.9   C224.2,222.9,219.1,222.3,213.7,222.3z M266.9,222.3c-18.6,0-33.7,15.1-33.7,33.7s15.1,33.7,33.7,33.7s33.7-15.1,33.7-33.7   S285.4,222.3,266.9,222.3z M54.9,223.4V288h18.3c28.1,0,34.9-21.9,34.9-32c0-19-14.4-32.6-34.9-32.6H54.9z M113.7,223.4V288h12.6   v-64.6H113.7z M298.3,223.4l27.4,66.3h6.9l28-66.3h-13.7l-17.7,43.4L312,223.4H298.3z M366.3,223.4V288h35.4v-10.9h-22.9v-17.7   h22.3v-10.9h-22.3v-14.3h22.9v-10.9H366.3z M410.3,223.4V288h12.6v-25.7h1.1l17.7,25.7h15.4l-20.6-27.4c9.5-1.9,14.9-8.4,14.9-18.3   c0-12.1-8.4-18.9-22.9-18.9H410.3z M422.9,233.7h3.4c7.9,0,12.6,3.4,12.6,9.7c0,6.5-4.5,9.7-12.6,9.7h-3.4V233.7z M67.4,234.3h4   c17.1,0,23.4,11.6,23.4,21.7c0,4.9-1.4,21.1-24,21.1h-3.4V234.3z"
    id="path9"
    style="fill:#ffffff" />
</g>
</svg>
