<svg height="512pt" viewBox="0 0 512 512" width="512pt" xmlns="http://www.w3.org/2000/svg"><path d="m512 256c0 141.386719-114.613281 256-256 256s-256-114.613281-256-256 114.613281-256 256-256 256 114.613281 256 256zm0 0" fill="#d4243e"/><path d="m256 495.28125c-63.914062 0-124.003906-24.890625-169.199219-70.082031-45.191406-45.195313-70.082031-105.285157-70.082031-169.199219s24.890625-124.003906 70.082031-169.195312c45.195313-45.195313 105.285157-70.085938 169.199219-70.085938s124.003906 24.890625 169.195312 70.085938c45.195313 45.191406 70.085938 105.28125 70.085938 169.195312s-24.890625 124.003906-70.085938 169.199219c-45.191406 45.191406-105.28125 70.082031-169.195312 70.082031zm0 0" fill="#ff5a73"/><path d="m427.117188 196.765625h-342.234376c-10.96875 0-19.859374 8.890625-19.859374 19.855469v78.757812c0 10.964844 8.890624 19.855469 19.859374 19.855469h342.234376c10.96875 0 19.859374-8.890625 19.859374-19.855469v-78.757812c0-10.964844-8.890624-19.855469-19.859374-19.855469zm0 0" fill="#e6e6e6"/></svg>