<?xml version="1.0" encoding="iso-8859-1"?>
<!-- Generator: Adobe Illustrator 19.0.0, SVG Export Plug-In . SVG Version: 6.00 Build 0)  -->
<svg version="1.1" id="Layer_1" xmlns="http://www.w3.org/2000/svg" x="0px" y="0px"
     viewBox="0 0 496.2 496.2" style="enable-background:new 0 0 496.2 496.2;" xml:space="preserve">
<path style="fill:#A3D5E0;" d="M0,248.1c0,137,111.1,248.1,248.1,248.1s248.1-111.1,248.1-248.1S385.1,0,248.1,0S0,111.1,0,248.1z"
	/>
<rect x="74.5" y="140" style="fill:#846342;" width="347.2" height="216.1"/>
<rect x="89.3" y="154.7" style="fill:#AD8355;" width="317.7" height="186.7"/>
<g>
	<path style="fill:#77593D;" d="M147.7,260.7l-5.9-28.6l-5.9,28.6c-0.5,2.2-0.8,3.7-1.1,4.7c-0.3,0.9-0.7,1.8-1.4,2.5
		s-1.6,1.1-2.7,1.1c-0.9,0-1.7-0.2-2.2-0.7c-0.6-0.4-1.1-1.1-1.4-1.9c-0.4-0.8-0.7-1.8-0.9-2.9s-0.4-2.2-0.6-3.1l-6-32.1
		c-0.4-1.9-0.5-3.3-0.5-4.3c0-1.2,0.3-2.3,1-3.1s1.5-1.3,2.5-1.3c1.3,0,2.2,0.6,2.7,1.7c0.5,1.1,0.9,2.8,1.2,4.9l4.8,27.9l5.3-26.1
		c0.4-2,0.8-3.5,1.1-4.6c0.3-1,0.8-1.9,1.5-2.7s1.7-1.1,2.9-1.1s2.2,0.4,2.9,1.2s1.2,1.7,1.4,2.6c0.3,0.9,0.6,2.5,1.1,4.6l5.4,26.1
		l4.8-27.9c0.2-1.5,0.4-2.6,0.7-3.4c0.2-0.8,0.6-1.6,1.1-2.2c0.5-0.6,1.2-1,2.2-1s1.8,0.4,2.4,1.3c0.7,0.8,1,1.9,1,3.1
		c0,0.9-0.2,2.3-0.5,4.3l-6,32.1c-0.4,2.2-0.8,3.8-1,4.8c-0.3,1-0.7,1.9-1.4,2.7c-0.7,0.8-1.6,1.1-2.8,1.1c-1.1,0-2-0.4-2.7-1.1
		s-1.1-1.6-1.4-2.5C148.6,264.5,148.2,262.9,147.7,260.7z"/>
	<path style="fill:#77593D;" d="M193.5,227.9h-16.6v11.7h15.3c1.1,0,2,0.3,2.5,1c0.6,0.7,0.8,1.5,0.8,2.6s-0.3,2-0.8,2.7
		s-1.4,1-2.5,1h-15.3v13.6h17.2c1.2,0,2,0.4,2.6,1.1s0.9,1.6,0.9,2.8c0,1.1-0.3,2-0.9,2.8c-0.6,0.7-1.5,1.1-2.6,1.1h-20
		c-1.6,0-2.8-0.5-3.5-1.4s-1.1-2.4-1.1-4.5v-35.9c0-1.4,0.2-2.5,0.5-3.4s0.8-1.5,1.5-1.9s1.5-0.6,2.6-0.6h19.4c1.2,0,2,0.3,2.6,1
		s0.9,1.6,0.9,2.7c0,1.1-0.3,2-0.9,2.7C195.6,227.6,194.7,227.9,193.5,227.9z"/>
	<path style="fill:#77593D;" d="M210.6,225.5v34.7h14.9c1.2,0,2.1,0.4,2.7,1.1c0.6,0.8,1,1.7,1,2.9c0,1.2-0.3,2.1-0.9,2.8
		c-0.6,0.7-1.5,1.1-2.7,1.1h-17.8c-1.6,0-2.8-0.5-3.5-1.4s-1.1-2.4-1.1-4.5v-36.7c0-2,0.3-3.4,1-4.4s1.5-1.5,2.6-1.5s2,0.5,2.7,1.5
		C210.3,222.1,210.6,223.5,210.6,225.5z"/>
	<path style="fill:#77593D;" d="M262.5,253.1c0,1.5-0.3,3.2-0.9,4.9c-0.6,1.8-1.5,3.5-2.7,5.2s-2.8,3.1-4.7,4.2
		c-1.9,1.1-4.1,1.6-6.6,1.6c-1.9,0-3.7-0.2-5.2-0.7s-3-1.2-4.3-2.2s-2.5-2.3-3.5-4c-1-1.5-1.8-3.2-2.5-5c-0.7-1.9-1.2-3.8-1.5-5.9
		s-0.5-4.3-0.5-6.7c0-3.8,0.4-7.3,1.3-10.3c0.9-3,2.1-5.6,3.7-7.8c1.6-2.2,3.4-3.8,5.6-4.9c2.1-1.1,4.4-1.7,6.8-1.7
		c2.9,0,5.6,0.8,7.8,2.3c2.3,1.5,4.1,3.4,5.3,5.7c1.2,2.3,1.8,4.4,1.8,6.4c0,1.1-0.3,2.1-0.9,2.9c-0.6,0.8-1.3,1.3-2.2,1.3
		c-0.9,0-1.6-0.3-2.1-0.9c-0.5-0.6-1-1.6-1.6-3c-1-2.4-2.1-4.1-3.4-5.3s-2.9-1.8-4.8-1.8c-3,0-5.4,1.5-7.2,4.5s-2.7,7.3-2.7,12.9
		c0,3.7,0.4,6.8,1.2,9.3s1.9,4.3,3.4,5.5s3.2,1.8,5.1,1.8c2.1,0,3.9-0.7,5.4-2.1s2.6-3.4,3.3-6.1c0.3-1.3,0.7-2.3,1.2-3.1
		c0.5-0.8,1.2-1.2,2.2-1.2c0.9,0,1.6,0.4,2.3,1.2C262.1,250.9,262.5,251.9,262.5,253.1z"/>
	<path style="fill:#77593D;" d="M285,219.7c3.8,0,7,1,9.7,3s4.7,4.9,6.1,8.6c1.4,3.7,2.1,8,2.1,13c0,3.7-0.4,7-1.1,10.1
		c-0.8,3-1.9,5.6-3.4,7.8c-1.5,2.2-3.4,3.9-5.6,5.1s-4.7,1.8-7.6,1.8c-2.8,0-5.4-0.6-7.6-1.8c-2.2-1.2-4.1-2.9-5.6-5.1
		s-2.6-4.8-3.4-7.9s-1.2-6.4-1.2-10c0-3.7,0.4-7,1.2-10.1c0.8-3.1,2-5.7,3.5-7.8s3.4-3.8,5.5-4.9C279.8,220.2,282.3,219.7,285,219.7
		z M295.5,244.2c0-3.5-0.4-6.5-1.3-9.1s-2.1-4.5-3.7-5.8s-3.4-2-5.5-2c-1.5,0-2.8,0.4-4.1,1.1c-1.2,0.7-2.3,1.8-3.2,3.2
		c-0.9,1.4-1.6,3.2-2.1,5.3c-0.5,2.2-0.8,4.6-0.8,7.3s0.3,5.2,0.8,7.4s1.3,4,2.2,5.5s2,2.5,3.3,3.2c1.2,0.7,2.6,1.1,4,1.1
		c1.9,0,3.6-0.6,5.2-1.9c1.6-1.2,2.8-3.1,3.8-5.7C295,251.2,295.5,248,295.5,244.2z"/>
	<path style="fill:#77593D;" d="M321.5,261l-5.8-30.4v32.9c0,1.8-0.3,3.2-0.9,4.1s-1.4,1.4-2.5,1.4c-1,0-1.8-0.5-2.4-1.3
		c-0.6-0.9-0.9-2.3-0.9-4.1v-37.8c0-2.1,0.4-3.5,1.2-4.2c0.8-0.7,1.9-1.1,3.3-1.1h2.3c1.4,0,2.4,0.2,3,0.5s1.1,0.9,1.4,1.8
		c0.3,0.8,0.6,2.2,1,4.1l5.3,26.1l5.3-26.1c0.4-1.9,0.7-3.3,1-4.1s0.8-1.4,1.4-1.8c0.6-0.3,1.6-0.5,3-0.5h2.3c1.4,0,2.5,0.4,3.3,1.1
		c0.8,0.7,1.2,2.1,1.2,4.2v37.8c0,1.8-0.3,3.2-0.9,4.1s-1.4,1.4-2.5,1.4c-1,0-1.8-0.5-2.4-1.4s-0.9-2.3-0.9-4.1v-32.9l-5.8,30.4
		c-0.4,2-0.7,3.4-0.9,4.3c-0.2,0.9-0.7,1.8-1.3,2.5c-0.6,0.8-1.5,1.1-2.7,1.1c-0.9,0-1.6-0.2-2.2-0.7s-1.1-1.1-1.4-1.9
		s-0.6-1.6-0.8-2.5C321.9,263,321.7,262,321.5,261z"/>
	<path style="fill:#77593D;" d="M375.4,227.9h-16.6v11.7h15.3c1.1,0,2,0.3,2.5,1c0.6,0.7,0.8,1.5,0.8,2.6s-0.3,2-0.8,2.7
		s-1.4,1-2.5,1h-15.3v13.6h17.1c1.2,0,2,0.4,2.6,1.1s0.9,1.6,0.9,2.8c0,1.1-0.3,2-0.9,2.8c-0.6,0.7-1.5,1.1-2.6,1.1h-20
		c-1.6,0-2.8-0.5-3.5-1.4s-1.1-2.4-1.1-4.5v-35.9c0-1.4,0.2-2.5,0.5-3.4s0.8-1.5,1.5-1.9s1.5-0.6,2.6-0.6h19.4c1.2,0,2,0.3,2.6,1
		s0.9,1.6,0.9,2.7c0,1.1-0.3,2-0.9,2.7C377.4,227.6,376.6,227.9,375.4,227.9z"/>
</g>
<path style="fill:#3A3A3A;" d="M283.4,279.9c29,0,35.1,49.2,35.1,67.3c0,1.5-0.1,2.9-0.3,4.3l0.3,0.1l-4.1,36.3l-4.5,43.4l0,0
	c-0.3,12.8-9.6,20.7-24,21c-12.8-0.3-21.8-8.2-22.1-21c0,0-1.8-34.6-1.8-48.3c0-9.6-4.2-32-5.6-44.3
	C256.3,324.3,265.3,279.9,283.4,279.9z"/>
<g>
	<path style="fill:#4F4F4E;" d="M259.2,358.7c0.8,5.2,3.5,56.7,4.1,61.2c3.9-14-9-70.3,23-70.3s20.7,58.5,24.7,71.3l6.3-58.2
		l1.3-11.2l-0.3-0.1c0.2-1.3,0.3-2.8,0.3-4.3c0-18-6.1-67.3-35.1-67.3c-18.2,0-27.1,44.9-27.1,58.7S258.1,351.4,259.2,358.7z"/>
	<path style="fill:#4F4F4E;" d="M263,416.8c0.4,8.2,0.7,14.4,0.7,14.4c0.3,12.8,9.3,20.7,22.1,21c14.4-0.3,23.8-8.2,24-21l0,0
		l1.5-14.4c0,0-2.9,29.8-25.4,29.8S263,416.8,263,416.8z"/>
</g>
<path style="fill:#3A3A3A;" d="M212.8,279.9c-29,0-35.1,49.2-35.1,67.3c0,1.5,0.1,2.9,0.3,4.3l-0.3,0.1l4.1,36.3l4.5,43.4l0,0
	c0.3,12.8,9.6,20.7,24,21c12.8-0.3,21.8-8.2,22.1-21c0,0,1.8-34.6,1.8-48.3c0-9.6,4.2-32,5.6-44.3
	C239.9,324.3,230.9,279.9,212.8,279.9z"/>
<g>
	<path style="fill:#4F4F4E;" d="M237,358.7c-0.8,5.2-3.5,56.7-4.1,61.2c-3.9-14,9-70.3-23-70.3s-20.7,58.5-24.7,71.3l-6.3-58.2
		l-1.3-11.2l0.3-0.1c-0.2-1.3-0.3-2.8-0.3-4.3c0-18,6.1-67.3,35.1-67.3c18.2,0,27.1,44.9,27.1,58.7S238.1,351.4,237,358.7z"/>
	<path style="fill:#4F4F4E;" d="M233.2,416.8c-0.4,8.2-0.7,14.4-0.7,14.4c-0.3,12.8-9.3,20.7-22.1,21c-14.4-0.3-23.8-8.2-24-21l0,0
		l-1.5-14.4c0,0,2.9,29.8,25.4,29.8S233.2,416.8,233.2,416.8z"/>
</g>
<g>
</g>
<g>
</g>
<g>
</g>
<g>
</g>
<g>
</g>
<g>
</g>
<g>
</g>
<g>
</g>
<g>
</g>
<g>
</g>
<g>
</g>
<g>
</g>
<g>
</g>
<g>
</g>
<g>
</g>
</svg>
