<svg xmlns="http://www.w3.org/2000/svg" height="740" width="750" xmlns:v="https://vecta.io/nano"><style><![CDATA[.B{fill-opacity:.655}.C{fill:#e5e5e6}.D{fill:#5f5e64}.E{fill:#a8a7aa}.F{fill:#959595}.G{stroke:#b9b9b9}.H{fill:#e7e6e8}.I{fill:#fbfbfc}.J{fill:#56555b}.K{stroke-width:3.894}.L{fill:#cdcdcd}.M{stroke:#a9a9a9}.N{stroke-width:2.387}.O{fill:#ececed}.P{fill-opacity:.867}.Q{fill:#b9b8ba}.R{fill-rule:evenodd}.S{stroke-width:1.987}.T{stroke-width:1.61}.U{fill-opacity:.446}.V{stroke-width:2.457}.W{fill-opacity:.435}]]></style><defs><linearGradient id="A" href="#Q" gradientUnits="userSpaceOnUse"><stop offset="0" stop-color="#adadb0"/><stop offset="1" stop-color="#b7b7b9" stop-opacity=".388"/></linearGradient><linearGradient id="B" href="#Q" gradientUnits="userSpaceOnUse"><stop offset="0" stop-color="#fdfdfe"/><stop offset="1" stop-color="#f1f1f2" stop-opacity=".469"/></linearGradient><linearGradient id="C" href="#Q" gradientUnits="userSpaceOnUse"><stop offset="0" stop-color="#7d7d7f"/><stop offset="1" stop-color="#515056"/></linearGradient><linearGradient id="D" x1="52611.734" x2="10961.234" href="#A" y1="188898.45" y2="98222.422" gradientTransform="scale(0.77448667,1.2911778)"/><linearGradient id="E" x1="189973.81" x2="119315.45" href="#A" y1="203748.14" y2="82454.68" gradientTransform="scale(0.84129055,1.18865)"/><linearGradient id="F" x1="103094.41" x2="56064.914" href="#A" y1="27142.064" y2="14262.731" gradientTransform="scale(1.3065209,0.76539148)"/><radialGradient cx="54688.254" cy="130373.05" fx="54688.254" fy="130373.05" gradientTransform="scale(1.0119235,0.98821701)" id="G" r="97803.375" href="#C"/><linearGradient id="H" x1="45045.004" x2="45106.812" y1="115371.784" y2="83201.487" href="#Q" gradientUnits="userSpaceOnUse"><stop offset="0" stop-color="#4a4a4c"/><stop offset="1" stop-color="#626266"/></linearGradient><radialGradient cx="215084.41" cy="144607.64" fx="215084.41" fy="144607.64" gradientTransform="scale(0.85442874,1.1703726)" id="I" r="70994.023" href="#C"/><radialGradient cx="57024.102" cy="19616.646" fx="57024.102" fy="19616.646" gradientTransform="scale(1.7859635,0.55992185)" id="J" r="29908.779" href="#Q" gradientUnits="userSpaceOnUse"><stop offset="0" stop-color="#8b8b8e"/><stop offset="1" stop-color="#58575d"/></radialGradient><radialGradient cx="8151.78" cy="12614.643" fx="8151.78" fy="12614.643" gradientTransform="scale(1.2518092,0.79884378)" id="K" r="3804.344" href="#B"/><radialGradient cx="72462.406" cy="111602.27" fx="72462.406" fy="111602.27" gradientTransform="scale(1.1009575,0.90830031)" id="L" r="35387.266" href="#B"/><radialGradient cx="21837.326" cy="12616.882" fx="21837.326" fy="12616.882" gradientTransform="matrix(1.9624909,-0.57698203,0.59815707,1.6043007,-1921.439,-13.29896)" id="M" r="214.817" href="#Q" gradientUnits="userSpaceOnUse"><stop offset="0" stop-color="#8c8c8c"/><stop offset=".673" stop-color="#8c8c8c"/><stop offset="1" stop-color="#8c8c8c" stop-opacity="0"/></radialGradient><path id="N" d="M1237.022 97.769a11.85 7.9 0 1 1-23.7 0 11.85 7.9 0 1 1 23.7 0z"/><path id="O" d="M459.857 293.898c0 2.387-1.935 4.323-4.323 4.323s-4.323-1.935-4.323-4.323 1.935-4.323 4.323-4.323 4.323 1.935 4.323 4.323z"/><path id="P" d="M317.445 504.782c0 3.336-2.594 6.04-5.795 6.04s-5.795-2.704-5.795-6.04 2.594-6.04 5.795-6.04 5.795 2.704 5.795 6.04z"/><linearGradient id="Q" gradientUnits="userSpaceOnUse"/><linearGradient href="#H" id="R"/><radialGradient href="#J" id="S"/><radialGradient href="#M" id="T"/><linearGradient href="#H" id="U"/><radialGradient href="#J" id="V" gradientTransform="matrix(1.7859635,0,0,0.55992185,0,0)"/><radialGradient href="#M" id="W" gradientTransform="matrix(1.962491,-0.57698203,0.59815707,1.604301,-1921.439,-13.29896)"/><path id="X" d="M717.657 373.055c1.809 132.185-83.759 258.721-205.286 309.441-125.406 55.662-282.549 26.994-379.205-70.725C41.151 523.469 8.024 380.546 52.241 260.867 96.816 131.784 225.769 38.941 362.034 35.708c133.925-6.923 267.433 72.707 323.64 194.688 21.09 44.401 32.045 93.513 31.983 142.659z"/><path id="Y" d="M450.593 327.244c-.715 34.837-53.92 58.578-80.246 32.436-30.903-33.311-42.119-85.316-18.558-125.837-2.868-42.81 68.017-26.535 94.497-18.462 39.252 5.634 55.389 56.195 29.551 83.017-2.857 12.931-15.451 21.158-25.244 28.846z"/><path id="Z" d="M523.461 285.253c-11.856 15.259-40.311-18.153-34.445 7.522 28.602 3.372-5.323 18.465-4.378 31.508-11.684 18.002 21.935-10.63 19.295-20.675 5.758-7.011 16.842-9.677 19.529-18.354z"/><path id="a" d="M177.146 431.369c16.517 7.291-2.616 20.103 17.398 21.475-.285 15.737 1.52 35.004-21.765 29.177-13.873 13.272-14.935 22.214-3.373 37.261 4.488 17.196 27.63 3.899 26.403 27.135 12.507-.282 15.635 7.614 22.297 12.549-.666-11.959 1.354-13.721-11.652-18.38 4.819-3.522 28.745.924 16.703-15.559 13.088-5.718 13.845 16.355 25.602 2.405-13.111-11.29-18.463-21.789-27.946-20.959-14.52-26.514 13.079-30.268 28.82-30.566-11.38-5.372-1.413-20.667 7.505-15.906 7.804-24.776 24.791 23.251 1.89 17.249-.745 18.729-13.845 18.443-19.258 9.071-15.373 19.612 16.418 32.377 13.962 51.802-13.144-4.27-15.336 17.924-20.69 12.891-3.301 32.386 36.823-10.853 26.859 13.265 9.418-2.55 13.623-2.511 20.567-13.391-19.334 1.964-36.405-4.747-16.961-14.638 1.436.495 36.717 12.751 32.421 5.056 16.036-5.448 41.238-8.677 47.52-5.203 2.416-11.165 21.37 10.653 16.223-12.16 15.264-7.304-4.367-22.504-7.861-20.959-2.015-13.459 3.839-26.257 17.095-37.843 4.37-21.053-.597-14.45-16.221-13.683-16.968-6.635 4.015-26.2 4.802-6.112 9.042-15.334-48.352-49.678-27.208-37.65-36.732 16.844-16.559-64.079-56.226-43.371-22.966 11.642-16.694 36.948-23.752 54.014-13.998 2.675 3.973 35.993-11.253 14.668-9.685-10.416-57.412-31.487-61.901-1.639z"/><path id="b" d="M614.132 270.944c14.004 9.034 17.899-5.608 15.916 13.805 9.907-11.547 27.219-12.621 17.41 6.189-11.106.62 17.204 14.26-.305 14.097 13.046 12.484-7.51 32.12-10.082 6.623-13.188-11.061-16.98-25.529-22.939-40.714z"/><path id="c" d="M689.603 274.025c2.833 6.238 10.62 30.507.44 26.236 9.249 28.36-27.382 29.412-35.247 5.961-5.937-8.864-12.704-16.548-2.157-15.104-12.043-15.12-11.219-55.673 20.37-41.546 8.565 8.096 13.506 19.217 20.086 28.819"/><path id="d" d="M523.673 108.096c2.992 21.435-9.671 5.345-22.945 11.272 3.836 14.026-15.464-9.702-14.219 7.925-14.603 23.075-49.036 1.921-64.833-16.347 5.307-9.443-23.512 9.06-21.138-11.585-24.469-15.265-63.761 8.036-75.977 1.748 33.402-14.51-31.93 4.574-9.403-7.837-13.051-3.751.274-14.626-21.368-10.325 14.445-9.156 43.332-.143 63.708-15.178-.319 30.005 37.363-3.704 44.822 13.507 9.286 2.212 39.507 29.063 30.603 7.446 13.834-2.662 23.19 12.51 35.367 2.015 16.939-2.022 36.76 9.621 54.557 11.616z"/><path id="e" d="M67.805 382.752c-23.71 19.815 17.429 44.759 8.25 8.377-.923-3.966-3.94-7.863-8.25-8.377z"/><path id="f" d="M374.774 110.934c-13.372 17.285-30.447-12.517-2.814-3.551l2.059 1.596z"/><path id="g" d="M387.437 368.342c4.445-23.023 9.725-5.626 20.422-8.616-18.968-10.113 4.392-21.771 5.965-1.515.207-25.027 17.42-5.508 7.672 9.258 7.065 11.613-18.583 13.649-26.354 21.709-9.417-3.19-15.601-12.068-7.705-20.836z"/><path id="h" d="M575.199 184.947c21.337 1.117.371 18.618-6.587 3.991 7.379 9.766-11.067 4.844.474 13.475-23.279.362-13.316-23.235-34.059-20.085 7.217-9.777 21.423-8.807 13.168-19.259 13.132.454 24.852 3.88 16.811 15.513l3.555 2.593 6.639 3.773zm125.757 144.97c.451 14.959-6.557 41.076-4.366 55.431 16.703 17.645-4.861-24.138 6.842-24.244-1.34-11.21 9.772 9.004 3.638-11.974 6.943-8.135-1.129-12.965-6.114-19.213z"/><path id="i" d="M624.978 479.253c-14.735 11.19 16.92 26.937-10.46 33.438 10.743-7.196-4.119-44.612 10.461-33.437z"/><path id="j" d="M611.878 152.634c-7.736-4.248-41.877-40.455-30.689-18.356 10.072-.847 7.542 35.655 16.717 22.723-16.471-18.587 4.649-6.008 13.973-4.367zm9.606-1.31c-6.798-16.202-13.904 1.622 0 0z"/><path id="k" d="M179.589 597.15c-19.736-13.719-15.589 18.005 1.434 5.441l-1.434-5.442z"/><path id="l" d="M180.462 578.81c13.647-8.622-12.059-32.475 13.684-20.887 9.452-1.932-.141 16.205 16.972 6.384-5.62 11.601-.423 32.545-15.645 10.154-9.17-10.139-5.884 5.255-15.012 4.349zm42.792-6.986c14.523 28.524 14.107-22.388 0 0zm27.946-3.493c7.711 9.573 20.932 8.669 0 0zm8.733 18.339c-25.7 4.198 48.096 15.225 10.738.967-3.488-1.345-7.14-.883-10.738-.967zm-66.371 21.833c-13.737-3.783 1.004 22.222.166 3.726zm-50.652-54.145c-20.376.494 11.461 17.529 0 0zm0 22.706c-1.52-19.962-19.787-2.48-9.543 1.241 13.202-11.421 12.42 19.822 12.735 1.693l-3.192-2.932zm9.606-64.625c-7.601 7.233 12.289 13.399 11.641 24.03 1.852-8.802-5.258-18.525-11.641-24.03zm-71.611-50.652c18.006 29.68-18.395-38.5-8.733-6.987l3.959 3.384 4.774 3.602z"/><path id="m" d="M130.683 451.307c-5.125 11.774-3.534 30.904 6.987 9.606l-2.557-3.821-4.429-5.785z"/><path id="n" d="M53.395 371.836c-12.533 20.076 14.35 11.813 0 0z"/><path id="o" d="M446.822 162.241c-1.163 24.47-33.469-14.27-25.957 20.56 7.923 8.472 23.718 49.716.631 38.825-19.831-18.537-28.208-5.754-20.086 10.48-20.468-9.37-29.169-39.099 3.179-33.54 15.556-14.691-27.238 10.496-10.416-14.397-11.548-2.997-44.998-23.409-11.101-24.547 9.019-3.282 4.018-21.404 20.086-7.859 16.996-1.96 24.823-17.996 28.819 6.986 7.789-2.56 8.964-17.06 14.846 3.492zm-51.928 45.412c-14.478 17.582-14.215-17.08 0 0zm23.982-20.741c-9.806 17.66-8.258-16.997 0 0z"/><path id="p" d="M475.655 118.423c-16.378 20.43-32.516-21.126-4.051-7.467L475 114.48z"/><path id="q" d="M679.969 446.095c-15.164-14.386 18.414-37.778 10.169-9.143-1.523 3.807-4.63 10.758-10.169 9.143z"/><path id="r" d="M653.403 511.371c-12.675-16.622 24.206-34.356 11.496-7.403-2.111 3.515-6.287 9.879-11.496 7.403z"/><path id="s" d="M464.869 476.452c-18.76 13.546 5.821 14.773 0 0z"/><path id="t" d="M545.692 392.702c9.195 13.532-38.726 30.173-8.915 46.226 17.814 1.753 20.707 17.962 36.004 4.006 19.628 20.714-29.488 18.265-13.049 43.648 13.842 19.734-32.163 53.599-37.032 43.502 14.453-12.597 43.035-27.404 15.806-42.511 5.201-16.342 5.493-26.23-6.189-21.654 1.493-30.515-30.47-16.626-38.73-2.872-7.335-15.768-.437-33.793 17.514-20.982 8.354-16.496-22.469-21.294.274-38.077 6.971-13.994 24.9 3.747 34.317-11.286zm-65.277-29.605c-25.184-30.606-30.214 25.563-10.091 27.597 7.468-9.525 17.341-13.421 10.091-27.597zm-19.942 59.246c.6 9.462-12.15 20.548-15.943 30.366-11.706 1.047 6.847-27.335-.522-37.686 2.344-16.698 12.914 3.442 16.464 7.321zm-22.231 60.517c-10.081 13.072-37.495-17.003-11.802-.41 3.91.631 7.87.348 11.802.41z"/><path id="u" d="M523.127 157.763c2.422 33.716-16.095 62.225-21.114 95.165-.461 29.213 13.533-34.936 20.338-45.038 4.34-26.521 9.029-66.009 11.569-85.017-2.986 11.675-10.93 22.912-10.793 34.89z"/><path id="v" d="M336.506 544.613c-22.045 28.256-23.342-27.507 0 0z"/><path id="w" d="M537.299 291.428c-8.347 15.188-7.002-14.619 0 0z"/><path id="x" d="M78.285 480.126c3.667 26.503 14.398-1.255 25.244 17.71 19.821-13.485 5.648 10.833 9.351 20.946-11.84-5.806-24.818.338-29.356 2.389 22.014-13.674-7.675-20.283-5.241-41.045zm16.593-42.792c10.506 12.523 19.814 30.099-.874 17.465-11.01 4.18 8.247-13.788.874-17.465zm413.28-375.769c66.871 27.442 124.691 76.737 161.573 138.98-21.689 9.51-33.643-53.173-40.426-24.409 16.188 17.436-5.29 23.14-6.008-.305-1.485-19.897-39.643-58.492-49.713-42.297 8.611 26.549-6.197-7.194-6.721 11.442-.223-16.693 18.882-28.652-9.241-29.166-15.019-14.912-28.151 7.081-38.449-16.097-8.598-14.646-40.203 1.123-17.726-16.764-14.846-1.585-42.321 10.18-16.485-6.154 12.334 1.275 27.6 2.103 23.195-15.229zM210.24 76.891c76.211-41.83 168.554-53.705 252.505-30.462-16.804 13.182-43.422-3.111-48.924 13.185-21.102-12.374-11.416 25.304-30.268-.291-30.904-.914 19.897-17.581-7.652-17.839-14.903-5.41-12.72 20.371-16.186 12.769-9.247 13.178-16.499-16.185-28.841-7.589-22.724 3.823-57.031 4.827-55.062 32.588-23.686-5.186-47.348 23.866-65.226 15.635 1.161-5.937.519-12.076-.345-17.996zm502.341 237.55c-7.18-38.738-19.66-77.659-41.742-110.395-16.769 3.342-13.002 27.792 5.16 32.922-14.652 18.382 20.396 18.028 16.281 41.56 1.427 14.298 2.294 33.138 20.301 35.913zm-33.203 205.982c-4.183 4.949-26.151 46.364-34.139 37.295 10.389-12.367 19.006-30.81 34.139-37.295zM623.8 556.24c-20.436 32.499-21.932-10.808 2.82-11.741.192 4.108-1.494 7.957-2.82 11.741zm24.701-22.231c4.137 20.486-42.032 25.876-30.573 46.047 11.212-12.682 30.903-26.848 30.573-46.047zM196.746 661.338c95.301 58.491 219.215 65.189 320.904 19.213-28.837-15.788-46.281 20.258-73.893 1.963l-58.548.586c7.125 20.147-33.197-.602-26.594-16.588-9.531 6.886-14.96 18.951-29.775 11.863-13.918 12.893-39.258 6.148-53.443 1.254-3.378-7.392-19.529-13.038-14.898-19.449-15.708 1.25-56.465-23.781-27.182 2.324-4.674 19.955-27.248-12.648-36.571-1.165zm408.145-269.417c-14.029-4.729-3.306-33.118-21.832-16.593 4.075 11.361-23.869 30.453.873 20.086 8.579-21.077 18.865 14.924 20.959-3.493z"/><path id="y" d="M566.902 111.589c-14.365-23.09-21.935 4.849 0 0z"/><path id="z" d="M615.163 275.99c18.99 6.377 24.946 28.594 28.406 37.052 11.725 16.816-17.441 20.096-6.971 33.512-9.182-10.613-24.548 1.61-5.531-8.767-4.902-9.774 17.159-15.929-2.721-23.713-17.248 1.492-26.866-29.391-13.184-38.084z"/><path id="AA" d="M623.297 301.457c-6.87-1.173 1.522-6.8 0 0z"/><path id="AB" d="M363.522 602.372c6.157 44.138-68.404 8.322-24.574-9.859l14.999.594z"/><path id="AC" d="M353.984 605.176c-11.678 36.239-34.309-21.86 0 0z"/><path id="AD" d="M318.445 271.405c-.148-20.925 6.688-51.302-.275-66.478-7.885 19.844 10.107 65.308-15.493 66.639 7.924-16.899 2.959-66.974-6.34-63.625 1.234 17.582 17.804 79.023-16.702 56.768 7.371-7.86-9.644-26.217 14.813-20.925 12.266-29.111-27.757 1.327-19.487-23.211-13.975-23.542 6.745 33.209-7.323 40.199-12.221 22.77-51.187-17.868-53.991-9.454 9.271 5.109 42.625 26.749 13.803 16.982-14.732-11.289-39.351-13.185-11.156-1.087 17.763 5.237 26.04 20.509.956 11.276-18.991-2.062 26.366 8.619-.935 14.626 15.406-2.853 30.01-10.813 21.329 13.146 18.826 11.171 5.992 10.383-4.466 15.714 10.335 5.653 45.223-5.02 16.484 4.222-9.391 5.816-53.668-3.472-22.021 6.679 27.435 6.776-16.521-4.54-7.486 16.312 4.238 25.227 39.79 23.932 45.645 49.384 6.916-14.001-17.325-39.184 4.264-18.248 9.303-10.614 16.25 2.567 10.771-16.335 21.354-3.277 12.988 38.555-2.056 33.213-7.701 17.211 5.702 20.062 12.849 23.877 13.151 8.607 27.892 43.31 26.358 36.435 17.008-8.432 12.886-25.756 1.508-36.75 18.729-5.38 6.073-42.364 2.813-14.44.409-13.956-24.148-48.806-8.352-54.851 14.435 9.923 62.92 2.73 23.091-5.762-18.608 10.46-42.881-21.787-10.328-11.838 14.347 21.63 21.337 6.058 27.493-7.917-20.488-9.223 16.812-16.697-10.282-20.14-2.358-2.887 6.708-32.166-13.156-26.644-13.874 9.242 5.639-23.151-12.33-7.768z"/><path id="AE" d="M293.993 293.238c-6.429-23.531-41.098-6.264-9.835 1.43-4.398 23.834-31.201-3.856-31.74-19.193-1.24 12.054-2.186 18.275-5.092 29.349 9.52 5.225 15.807 4.251 12.906 10.789 29.412-3.136-13.353 32.291 11.051 22.475 1.38 17.265 11.731 18.968 26.759 25.3-.181-15.576-35.811-28.019-15.455-38.897 22.151-5.389 40.903-8.372 61.034 1.849-4.259-11.384-24.857-13.615-5.758-18.427-3.519-20.157-21.697 25.996-35.176-1.175 22.454.749-13.545-41.363-8.692-13.5z"/><path id="AF" d="M294.866 304.591c-24.611-5.743-20.13 27.9 5.169 16.349 7.044-4.837 2.215-15.17-5.169-16.349z"/><path id="AG" d="M216.268 302.844c-16.907-14.654-6.609-33.187-21.445-42.419 2.731-16.876-10.609-28.829 9.936-20.7-15.416-27.788 52.635-4.216 33.193-32.172-8.315 4.193-53.001 4.148-24.304-4.265 31.843-14.07-19.617-13.663-24.579-23.637 5.697-10.612 1.374-32.494-4.211-10.478-5.54 24.873-45.665 6.815-41.887 32.594-14.412 5.153-49.486 37.207-42.266 38.946 22.169-6.377 57.013-56.881 71.459-29.439-6.04 23.481-30.87 22.965-44.161 20.558 14.284 8.664 20.396 17.585 13.168 32.685 6.137-4.354 16.863-17.781 13.772-.505 1.92-21.868 15.569 3.511 26.28-3.614-4.197 18.687-49.056 29.191-12.038 43.696 20.276 25.099-69.342 13.305-21.842 20.143 38.124-3.465-25.861 20.073 5.55 16.562 19.797-18.398 26.062 36.426 37.264 11.992-9.15-20.877 10.808-14.907 9.056 1.348 7.771-16.119 19.504-32.429 17.054-51.294z"/><path id="AH" d="M212.775 312.45c-13.785 8.116-22.027-33.051-24.221-3.258-9.887.945-13.812 5.717-10.832 11.643-22.112 1.909-12.16 4.553 3.946 3.139 2.255 15.711 16.249 9.48 19.486 5.797 9.856-3.671 13.372-1.032 6.039-8.848 22.345-1.361-7.857.905 4.541-7.47l1.04-1.002z"/><path id="AI" d="M173.476 226.866c-16.122 5.278-25.629 14.206-1.747 7.861 4.367.608 3.232-6.408 1.747-7.861z"/><path id="AJ" d="M174.349 216.386c1.064 21.065-13.177-10.521 0 0zm20.959 99.558c-12.192 7.022 10.628 9.529 0 0z"/><path id="AK" d="M758.622 399.124c1.809 132.185-83.759 258.721-205.286 309.441-125.406 55.662-282.549 26.994-379.205-70.725-92.015-88.302-125.142-231.224-80.924-350.903C137.781 157.853 266.735 65.01 403 61.777c133.925-6.924 267.434 72.706 323.64 194.688 21.089 44.398 32.047 93.514 31.982 142.659z"/></defs><g transform="matrix(1.070087 0 0 1.070087 -70.393075 -51.727767)" class="R"><g transform="translate(40.965 26.069)"><use href="#X" fill="#d1d1d2"/><path d="M54.335 490.772c-30.253-82.656-28.228-177.554 9.634-257.243 12.847 15.714-.3 38.857 13.376 54.903 8.93 26.458 15.447 54.015 27.432 79.568 4.062 40.56 39.546 49.446 72.867 58.047 18.749 9.598 38.92 24.715 33.346 48.166-9.241 25.985 18.091 31.891 29.904 10.242 17.279 4.47 45.393 21.2 45.083 39.661-25.363 4.562-81.259 38.481-32.807 55.69 14.988 3.567 26.838 18.759 4.487 9.197-22.154-2.207-62.002-14-75.076 1.301 20.995 5.908 40.476 14.403 47.731 39.658 6.193 29.228 60.998-6.446 31.548 26.695-19.41-.928-41.77-15.542-44.767-28.482-13.301-1.593-32.127 5.052-20.478 13.952-18.453-18.1-60.681-27.939-47.102-57.89-9.932-17.464-4.809 24.949-21.27 2.365-12.69-20.217-66.268-44.789-37.05-71.631-33.084 20.016-13.809-25.434-36.856-24.2z" fill="url(#D)"/><path d="M600.338 514.649c-22.16 21.406 34.411 42.64-7.591 51.606-22.352 4.728-12.074 16.742 5.03 15.451-12.85 4.965-34.434 44.654-8.065 21.805 10.189-15.559 50.672-13.603 22.18 4.86-15.542 18.682-41.359 24.364-63.628 33.819 10.849 22.104-29.612 20.261-6.846.1 8.222-12.162 18.384-21.222 30.798-28.172 7.9-30.104-42.799 34.043-57.558 1.357-45.112-5.939 33.332-27.838 49.986-36.394-7.678-20.141 44.439-22.46 11.588-28.925-20.939-11.341-7.91 40.703-37.209 32.048-31.282 13.883-63.215-5.64-93.211 5.677 23.301-12.4 67.594-17.023 63.978-53.526-25.622-3.772-29.05 44.101-55.832 21.373-11.722 5.357-4.041-27.045-25.005-15.441-23.178.468-10.841-21.728-10.6-28.633-14.756 5.762-44.683 18.789-27.204-9.805 20.032-25.771 2.412-52.699-11.312-73.474 12.783-5.389 49.841-1.593 32.386-29.866-12.842-21.301 10.88-27.675 4.713-49.058 23.057-26.724 64.299-35.965 74.375-74.641 26.292-15.263 59.641 9.359 40.249 38.95-21.135 40.844 27.318 62.867 30.886 97.825 5.181 29.784 28.724 58.856 41.399 84.59 22.784-6.557 54.678-8.454 49.36 24.717-14.62 5.921-23.025-22.718-42.192-7.999-3.307.648-8.03-1.331-10.675 1.757z" fill="url(#E)"/><use href="#Y" fill="#b3b3b5"/><use href="#Z" class="I"/><path d="M533.28 185.82c21.095-25.951-36.699-19.87-7.522-43.011 7.291-26.476-35.288-48.787-9.523-75.197C460.576 37.38 393.386 34.574 331.69 43.181c-30.819-3.084-46.927 21.231-51.671 46.574 34.115-4.896 67.628.51 101.994 2.748 43.171 5.775 86.28 12.922 128.561 23.451 21.18 17.185-25.674 21.93-8.734 41.92-11.578 13.502 16.289 43.186 31.44 27.946z" fill="url(#F)"/><path d="M344.822 282.033c19.671-3.048 50.617-22.825 54.932-31.15-16.55 2.096-73.123-28.312-28.778-38.226 12.082 7.864 41.81 10.916 27.169 21.927 30.202 19.156 33.034-27.497 44.711-44.678-10.405-16.611 3.708-41.5-20.142-31.557 1.344-22.789-27.954-5.615-28.679-31.815-24.282-2.966-47.514-20.435-70.66-14.135-20.617 16.489-39.133 9.141-61.517 13.314-14.412 10.027.886 34.434-18.831 26.452-11.159 10.496-22.815 41.269-29.2 18.086-32.551 12.431-.039-30.68-.711-42.871 9.953-16.65 36.618-5.995 51.363-21.753 14.709-5.27 48.599-14.385 12.226-17.467-23.566-2.921-42.857 15.852-65.776 15.304-7.294-11.488 4.878-22.489-14.518-9.216-17.283 12.248-49.998 26.018-53.145 42.77 18.86-10.287-13.772 22.711-18.308 15.826-11.659 19.002-11.164 18.981-29.998 32.652.104 11.384-28.7 37.705-20.998 40.396 4.076-11.816 31.483-39.49 13.234-10.229-11.453 11.071-22.072 30.167-3.145 10.546 11.467-20.229 18.449 8.492 3.145 8.667-4.992 8.675-15.026 27.092-15.429 4.453-10.208 7.358-12.003 31.886 3.533 25.98-1.069 10.836-27.269 19.126-14.304 35.939 11.179-9.498 6.494-28.242 9.558-4.243 27.346 5.182-8.138 28.469 14.894 43.54 1.31 10.956-12.257 6.149-8.294 25.608-19.148 18.612 13.636 12.879 10.914 21.55 22.988 9.632 6.233 58.796 34.06 55.018-1.401-24.248 17.786-13.963 6.113.873 7.402 21.336 31.358.403 13.563-14.887 6.855 9.202 15.149 11.233 16.129 7.901 9.472 3.848 34.733-11.331 25.636 11.719 14.453 15.229 60.393 38.795 61.132 25.685-.682-19.031 10.093-11.152 18.028-19.065 17.898-1.9 2.487 27.389-4.368 27.946-4.627 17.032-13.373 8.773-18.596 3.427-5.48 12.242 26.553 15.213-3.236 12.293-1.555 18.303 33.534-18.353 44.739-25.38 24.987-21.859 53.751-45.523 58.312-80.29 16.422 3.999 42.594-2.209 13.637-10.329 9.824-8.297 8.919-32.757 23.043-10.632 10.315-14.3 7.831-24.08-7.546-21.886-3.705-15.336 17.705-22.14-2.83-23.668 18.188-7.157 29.488-5.888 52.294-12.083 14.491 7.968 50.17 31.815 54.146 6.113-6.838-12.194 16.617-13.734-8.733-13.1-7.572 12.242-12.049-8.889 2.482-5.863-27.745 2.682-10.833-30.375 2.335-10.947-6.456 13.378 13.704 15.877 15.273 2.838 10.446-5.35-2.087-18.851-3.194-2.685-13.725 4.444-16.958-14.746-.99-2.709-.245-19.535-17.249.628-32.157-14.735-1.695 19.875-8.15 8.007-24.778 6.121 5.21-22.574-23.679-11.009-3.927-2.152-17.949 5.913-17.781 20.836-12.9 37.182-22.95 15.033 2.462-38.759-27.722-21.024-15.856 3.496-4.832-23.271-26.929-8.889l-6.258-2.464zm-92.678 122.964c-12.082 7.801-1.893 43.581-15.763 23.319-19.131 3.33-.613-42.363 6.193-18.371 1.658-3.779 5.828-5.234 9.57-4.948z" fill="url(#G)"/><use href="#a" fill="url(#R)"/><use href="#b" class="C"/><path d="M432.849 205.906c26.368.201 18.551-52.43 53.273-29.692 10.665 13.117 51.243 12.078 20.085-4.366-20.907-13.567 18.514-19.074 12.391-6.354-13.96 3.229 10.957 27.507 17.02 7.797 1.672 11.926 6.088 20.062 5.221 34.98 21.003-3.103 11.651 14.435 20.936 23.784-14.695 10.343 10.889 27.619-4.348 39.267 4.811 6.145 19.529-2.217 10.807 12.251 22.577 9.859 6.799-24.267 25.689-7.961-7.423-14.956-3.872-34.672 10.091-15.564-14.623 16.229 26.703 10.508 4.367 25.326 4.337 17.278 7.847 27.198 24.89 30.567 5.12 7.673 7.118 18.372 22.268 21.084 1.863 11.674 13.034 37.067 28.432 31.355.738 23.213 12.295 55.425-2.218 81.15-9.5 14.045-17.033 47.639-27.084 40.197.657 18.738-23.859 26.978-21.504 5.209 5.381-20.187 27.647-11.706 32.522-33.586-16.32.072-25.54-9.245-38.288 2.035-3.589-8.297-1.447-30.766 6.874-21.896-16.568 11.741 22.392 5.471-2.107-7.925-15.759 18.311-26.975-10.458-4.572-2.348-23.091-9.867 2.386-35.007 1.126-8.212 9.324-20.322-18.836-22.109-3.809-35.329 5.775-14.984 19.381-51.113 17.53-14.099 8.658-8.26 4.897-39.355-3.385-21.662-20.537-2.775 2.069 38.03-20.504 24.303 8.341 18.619-17.016-4.122-23.581 3.109-.887-14.278-17.231-20.966-10.17-.511-15.13 14.649-23.669 63.454 7.249 62.307 22.863 11.336 7.074 33.878 9.237 54.278 9.401 18.753-18.815 32.715-4.26 5.677-10.117-7.024-18.888 5.142-26.288-8.822 16.769 16.589-9.991 19.675-6.023 4.455 15.166-9.209-18.632-.715-7.236-22.754 1.818-16.065 35.322-23.615 8.984-28.771-15.981 21.559-7.361-27.747-27.747-10.443-.33-10.545-12.181-20.377-7.856-21.05 24.301-6.794 17.662-37.834-1.489-23.371-5.898-3.901-32.507-14.2-11.208-12.933 11.462 10.902-7.778-30.347-6.718-3.813-18.022-15.444 9.177-31.514-9.814-44.716 10.759-4.851-16.069-33.171 7.193-23.403 2.777-7.201 14.449-19.09 29.692-10.48 6.027-16.495-19.724 4.479-13.349-11.709-24.556 15.522-55.945-26.583-61.754-3.137-.623-11.919-10.558-16.774-20.221-2.8-11.819.903-26.602-14.971-4.585-8.876-7.371-18.296 20.682-49.185-5.455-49.204-1.302-4.251-3.508-9.214-.305-13.345z" fill="url(#I)"/><use href="#c" fill="#504f55"/><use href="#d" fill="url(#S)"/><use href="#e" fill="#4f4f4f"/><use href="#f" fill="#4d4d53"/><use href="#g" fill="#5d5c63"/><use href="#h" class="D"/><use href="#i" fill="#69686f"/><use href="#j" class="D"/><use href="#k" class="J"/><g fill="#6b6a71"><use href="#l"/><use href="#m"/></g><use href="#n" class="J"/><use href="#o" class="E"/><use href="#p" class="F G S"/><use href="#N" transform="matrix(.596414 .894597 -.915074 .568916 -94.25593 -952.2113)" fill="#a7a7a7" stroke="#cacaca" class="T"/><use href="#N" transform="matrix(.54745 .396219 -.402826 .582668 -162.8355 -400.4167)" class="F G K"/><use href="#q" fill="#cacaca"/><use href="#r" class="L"/><use href="#O" class="H M N"/><use href="#s" class="O"/><path d="M501.847 541.525c38.183-5.715-43.539 30.956-5.041 4.373l2.136-2.342z" fill="url(#K)"/><use href="#t" class="O"/><path d="M328.323 596.485c-18.181-25.266-39.924-47.982-51.681-77.341-7.813-22.476-19.263-1.335-1.44 5.647 5.352 23.259 39.36 62.681 44.702 67.105-6.605-19.424-51.663-12.237-14.25-6.959 34.567 15.21-41.499-3.721-.992 10.405-4.205-1.705-29.629-.743-5.604 4.337 24.383 2.421-20.157 15.318 6.668 17.164-15.866 14.673 14.038-3.79 7.852 8.132 12.796 6.918-31.441 46.859-28.518 53.492 20.271-9.822 31.54-45.274 44.489-50.063 2.998 15.335-4.027 43.792 7.28 49.552 12.275-6.311-1.407-47.08 13.576-22.556-3.07-25.182 16.423 24.637 9.805-4.46-15.199-24.889 19.785-10.127 3.195 4.615 13.58 13.391 24.186-8.245 41.503-4.851 17.776-7.395-10.968-12.371 12.286-8.03-7.415-12.844 35.242 2.764 7.742-11.975.628-11.564-13.282-.415-16.496-7.107-3.055 15.835-13.256 11.958-3.677-5.588-2.601-4.394-32.494.662-7.749-2.963 15.557 9.535 53.226-13.325 32.234-16.945-2.308 12.217-54.51 5.813-18.454 3.656 16.785-5.414 11.466-16.528 27.448-15.762 16.61-2.935 58.199-15.152 54.734-24.948-17.572 11.158-63.329 29.06-69.554 20.626 18.223 5.633 40.663-18.566 8.994-5.22-5.377-13.199 42.673-25.308 33.358-42.52 19.527 3.804 30.166-29.75 8.625-15.595-7.596 25.346-37.86-12.273-33.166 13.738 7.403 2.981 11.275 19.082 18.136 6.775 2.01 17.62-30.837 17.326-27.935 4.853-11.236.174-10.182-11.363-21.494-10.672 11.4-7.242 40.006-61.625 18.013-29.598-2.797 15.559-20.247 18.015-16.229 4.759-8.681 10.827-8.708 52.527-18.515 20.586-21.749 23.826 3.125-27.854-13.025-23.06-16.464-20.359 15.977 36.245-6.687 14.181-9.552 13.609-15.956 16.514-26.393 14.617-4.504 7.892-22.94-6.927-30.336 3.767-27.354-4.969 17.629 29.724 6.864 25.255 17.588 34.219-29.041-16.723-28.43-33.383-16.477-5.3-6.189-52.294-22.979-36.281 12.249 20.85 21.325 45.827 34.481 67.24 14.415 12.008 26.574 34.149 5.876 9.135-7.628-10.174-25.646-29.196-8.375-6.325 8.491 10.209 18.923 20.603 24.118 32.566z" fill="url(#L)"/><use href="#u" fill="#e3e3e3" class="U"/><use href="#v" fill="#54535a"/><g class="H M"><use href="#O" x="52.489" y="79.043" class="N"/><use href="#w" class="V"/></g><use href="#N" transform="matrix(.675315 .02532 -.011248 .708268 -488.0738 126.9378)" opacity=".658" class="F G K"/><g fill="#94939a" class="B"><use href="#P"/><use href="#P" x="-11.733" y="-54.033"/><use href="#P" x="-16.673" y="-51.563"/><use href="#P" x="-9.263" y="-7.101"/><use href="#P" x="-92.011" y="-33.037"/><use href="#P" x="282.603" y="-68.121"/></g><use href="#x" class="I"/><use href="#y" class="D"/><use href="#z" fill="#98989e"/><use href="#AA" class="H"/><use href="#AB" opacity=".596" fill="url(#T)"/><use href="#AC" opacity=".85" fill="#fff"/><use href="#AD" class="E P"/><use href="#AE" class="Q"/><use href="#AF" class="C"/><use href="#AG" class="E P"/><use href="#AH" class="Q"/><use href="#AI" fill="#f3f3f4"/><use href="#AJ" class="C"/></g><use href="#AK" class="L W"/></g><g transform="matrix(1.087609 0 0 1.087609 -77.685891 -63.71495)" class="R"><g transform="translate(40.965 26.069)"><use href="#X" fill="#d1d1d2"/><path d="M54.335 490.772c-30.253-82.656-28.228-177.554 9.634-257.243 12.847 15.714-.3 38.857 13.376 54.903 8.93 26.458 15.447 54.015 27.432 79.568 4.062 40.56 39.546 49.446 72.867 58.047 18.749 9.598 38.92 24.715 33.346 48.166-9.241 25.985 18.091 31.891 29.904 10.242 17.279 4.47 45.393 21.2 45.083 39.661-25.363 4.562-81.259 38.481-32.807 55.69 14.988 3.567 26.838 18.759 4.487 9.197-22.154-2.207-62.002-14-75.076 1.301 20.995 5.908 40.476 14.403 47.731 39.658 6.193 29.228 60.998-6.446 31.548 26.695-19.41-.928-41.77-15.542-44.767-28.482-13.301-1.593-32.127 5.052-20.478 13.952-18.453-18.1-60.681-27.939-47.102-57.89-9.932-17.464-4.809 24.949-21.27 2.365-12.69-20.217-66.268-44.789-37.05-71.631-33.084 20.016-13.809-25.434-36.856-24.2z" fill="url(#D)"/><path d="M600.338 514.649c-22.16 21.406 34.411 42.64-7.591 51.606-22.352 4.728-12.074 16.742 5.03 15.451-12.85 4.965-34.434 44.654-8.065 21.805 10.189-15.559 50.672-13.603 22.18 4.86-15.542 18.682-41.359 24.364-63.628 33.819 10.849 22.104-29.612 20.261-6.846.1 8.222-12.162 18.384-21.222 30.798-28.172 7.9-30.104-42.799 34.043-57.558 1.357-45.112-5.939 33.332-27.838 49.986-36.394-7.678-20.141 44.439-22.46 11.588-28.925-20.939-11.341-7.91 40.703-37.209 32.048-31.282 13.883-63.215-5.64-93.211 5.677 23.301-12.4 67.594-17.023 63.978-53.526-25.622-3.772-29.05 44.101-55.832 21.373-11.722 5.357-4.041-27.045-25.005-15.441-23.178.468-10.841-21.728-10.6-28.633-14.756 5.762-44.683 18.789-27.204-9.805 20.032-25.771 2.412-52.699-11.312-73.474 12.783-5.389 49.841-1.593 32.386-29.866-12.842-21.301 10.88-27.675 4.713-49.058 23.057-26.724 64.299-35.965 74.375-74.641 26.292-15.263 59.641 9.359 40.249 38.95-21.135 40.844 27.318 62.867 30.886 97.825 5.181 29.784 28.724 58.856 41.399 84.59 22.784-6.557 54.678-8.454 49.36 24.717-14.62 5.921-23.025-22.718-42.192-7.999-3.307.648-8.03-1.331-10.675 1.757z" fill="url(#E)"/><use href="#Y" fill="#b3b3b5"/><use href="#Z" class="I"/><path d="M533.28 185.82c21.095-25.951-36.699-19.87-7.522-43.011 7.291-26.476-35.288-48.787-9.523-75.197C460.576 37.38 393.386 34.574 331.69 43.181c-30.819-3.084-46.927 21.231-51.671 46.574 34.115-4.896 67.628.51 101.994 2.748 43.171 5.775 86.28 12.922 128.561 23.451 21.18 17.185-25.674 21.93-8.734 41.92-11.578 13.502 16.289 43.186 31.44 27.946z" fill="url(#F)"/><path d="M344.822 282.033c19.671-3.048 50.617-22.825 54.932-31.15-16.55 2.096-73.123-28.312-28.778-38.226 12.082 7.864 41.81 10.916 27.169 21.927 30.202 19.156 33.034-27.497 44.711-44.678-10.405-16.611 3.708-41.5-20.142-31.557 1.344-22.789-27.954-5.615-28.679-31.815-24.282-2.966-47.514-20.435-70.66-14.135-20.617 16.489-39.133 9.141-61.517 13.314-14.412 10.027.886 34.434-18.831 26.452-11.159 10.496-22.815 41.269-29.2 18.086-32.551 12.431-.039-30.68-.711-42.871 9.953-16.65 36.618-5.995 51.363-21.753 14.709-5.27 48.599-14.385 12.226-17.467-23.566-2.921-42.857 15.852-65.776 15.304-7.294-11.488 4.878-22.489-14.518-9.216-17.283 12.248-49.998 26.018-53.145 42.77 18.86-10.287-13.772 22.711-18.308 15.826-11.659 19.002-11.164 18.981-29.998 32.652.104 11.384-28.7 37.705-20.998 40.396 4.076-11.816 31.483-39.49 13.234-10.229-11.453 11.071-22.072 30.167-3.145 10.546 11.467-20.229 18.449 8.492 3.145 8.667-4.992 8.675-15.026 27.092-15.429 4.453-10.208 7.358-12.003 31.886 3.533 25.98-1.069 10.836-27.269 19.126-14.304 35.939 11.179-9.498 6.494-28.242 9.558-4.243 27.346 5.182-8.138 28.469 14.894 43.54 1.31 10.956-12.257 6.149-8.294 25.608-19.148 18.612 13.636 12.879 10.914 21.55 22.988 9.632 6.233 58.796 34.06 55.018-1.401-24.248 17.786-13.963 6.113.873 7.402 21.336 31.358.403 13.563-14.887 6.855 9.202 15.149 11.233 16.129 7.901 9.472 3.848 34.733-11.331 25.636 11.719 14.453 15.229 60.393 38.795 61.132 25.685-.682-19.031 10.093-11.152 18.028-19.065 17.898-1.9 2.487 27.389-4.368 27.946-4.627 17.032-13.373 8.773-18.596 3.427-5.48 12.242 26.553 15.213-3.236 12.293-1.555 18.303 33.534-18.353 44.739-25.38 24.987-21.859 53.751-45.523 58.312-80.29 16.422 3.999 42.594-2.209 13.637-10.329 9.824-8.297 8.919-32.757 23.043-10.632 10.315-14.3 7.831-24.08-7.546-21.886-3.705-15.336 17.705-22.14-2.83-23.668 18.188-7.157 29.488-5.888 52.294-12.083 14.491 7.968 50.17 31.815 54.146 6.113-6.838-12.194 16.617-13.734-8.733-13.1-7.572 12.242-12.049-8.889 2.482-5.863-27.745 2.682-10.833-30.375 2.335-10.947-6.456 13.378 13.704 15.877 15.273 2.838 10.446-5.35-2.087-18.851-3.194-2.685-13.725 4.444-16.958-14.746-.99-2.709-.245-19.535-17.249.628-32.157-14.735-1.695 19.875-8.15 8.007-24.778 6.121 5.21-22.574-23.679-11.009-3.927-2.152-17.949 5.913-17.781 20.836-12.9 37.182-22.95 15.033 2.462-38.759-27.722-21.024-15.856 3.496-4.832-23.271-26.929-8.889l-6.258-2.464zm-92.678 122.964c-12.082 7.801-1.893 43.581-15.763 23.319-19.131 3.33-.613-42.363 6.193-18.371 1.658-3.779 5.828-5.234 9.57-4.948z" fill="url(#G)"/><use href="#a" fill="url(#U)"/><use href="#b" class="C"/><path d="M432.849 205.906c26.368.201 18.551-52.43 53.273-29.692 10.665 13.117 51.243 12.078 20.085-4.366-20.907-13.567 18.514-19.074 12.391-6.354-13.96 3.229 10.957 27.507 17.02 7.797 1.672 11.926 6.088 20.062 5.221 34.98 21.003-3.103 11.651 14.435 20.936 23.784-14.695 10.343 10.889 27.619-4.348 39.267 4.811 6.145 19.529-2.217 10.807 12.251 22.577 9.859 6.799-24.267 25.689-7.961-7.423-14.956-3.872-34.672 10.091-15.564-14.623 16.229 26.703 10.508 4.367 25.326 4.337 17.278 7.847 27.198 24.89 30.567 5.12 7.673 7.118 18.372 22.268 21.084 1.863 11.674 13.034 37.067 28.432 31.355.738 23.213 12.295 55.425-2.218 81.15-9.5 14.045-17.033 47.639-27.084 40.197.657 18.738-23.859 26.978-21.504 5.209 5.381-20.187 27.647-11.706 32.522-33.586-16.32.072-25.54-9.245-38.288 2.035-3.589-8.297-1.447-30.766 6.874-21.896-16.568 11.741 22.392 5.471-2.107-7.925-15.759 18.311-26.975-10.458-4.572-2.348-23.091-9.867 2.386-35.007 1.126-8.212 9.324-20.322-18.836-22.109-3.809-35.329 5.775-14.984 19.381-51.113 17.53-14.099 8.658-8.26 4.897-39.355-3.385-21.662-20.537-2.775 2.069 38.03-20.504 24.303 8.341 18.619-17.016-4.122-23.581 3.109-.887-14.278-17.231-20.966-10.17-.511-15.13 14.649-23.669 63.454 7.249 62.307 22.863 11.336 7.074 33.878 9.237 54.278 9.401 18.753-18.815 32.715-4.26 5.677-10.117-7.024-18.888 5.142-26.288-8.822 16.769 16.589-9.991 19.675-6.023 4.455 15.166-9.209-18.632-.715-7.236-22.754 1.818-16.065 35.322-23.615 8.984-28.771-15.981 21.559-7.361-27.747-27.747-10.443-.33-10.545-12.181-20.377-7.856-21.05 24.301-6.794 17.662-37.834-1.489-23.371-5.898-3.901-32.507-14.2-11.208-12.933 11.462 10.902-7.778-30.347-6.718-3.813-18.022-15.444 9.177-31.514-9.814-44.716 10.759-4.851-16.069-33.171 7.193-23.403 2.777-7.201 14.449-19.09 29.692-10.48 6.027-16.495-19.724 4.479-13.349-11.709-24.556 15.522-55.945-26.583-61.754-3.137-.623-11.919-10.558-16.774-20.221-2.8-11.819.903-26.602-14.971-4.585-8.876-7.371-18.296 20.682-49.185-5.455-49.204-1.302-4.251-3.508-9.214-.305-13.345z" fill="url(#I)"/><use href="#c" fill="#504f55"/><use href="#d" fill="url(#V)"/><use href="#e" fill="#4f4f4f"/><use href="#f" fill="#4d4d53"/><use href="#g" fill="#5d5c63"/><use href="#h" class="D"/><use href="#i" fill="#69686f"/><use href="#j" class="D"/><use href="#k" class="J"/><g fill="#6b6a71"><use href="#l"/><use href="#m"/></g><use href="#n" class="J"/><use href="#o" class="E"/><use href="#p" class="F G S"/><use href="#N" transform="matrix(.596414 .894597 -.915074 .568916 -94.25593 -952.2113)" fill="#a7a7a7" stroke="#cacaca" class="T"/><use href="#N" transform="matrix(.54745 .396219 -.402826 .582668 -162.8355 -400.4167)" class="F G K"/><use href="#q" fill="#cacaca"/><use href="#r" class="L"/><use href="#O" class="H M N"/><use href="#s" class="O"/><path d="M501.847 541.525c38.183-5.715-43.539 30.956-5.041 4.373l2.136-2.342z" fill="url(#K)"/><use href="#t" class="O"/><path d="M328.323 596.485c-18.181-25.266-39.924-47.982-51.681-77.341-7.813-22.476-19.263-1.335-1.44 5.647 5.352 23.259 39.36 62.681 44.702 67.105-6.605-19.424-51.663-12.237-14.25-6.959 34.567 15.21-41.499-3.721-.992 10.405-4.205-1.705-29.629-.743-5.604 4.337 24.383 2.421-20.157 15.318 6.668 17.164-15.866 14.673 14.038-3.79 7.852 8.132 12.796 6.918-31.441 46.859-28.518 53.492 20.271-9.822 31.54-45.274 44.489-50.063 2.998 15.335-4.027 43.792 7.28 49.552 12.275-6.311-1.407-47.08 13.576-22.556-3.07-25.182 16.423 24.637 9.805-4.46-15.199-24.889 19.785-10.127 3.195 4.615 13.58 13.391 24.186-8.245 41.503-4.851 17.776-7.395-10.968-12.371 12.286-8.03-7.415-12.844 35.242 2.764 7.742-11.975.628-11.564-13.282-.415-16.496-7.107-3.055 15.835-13.256 11.958-3.677-5.588-2.601-4.394-32.494.662-7.749-2.963 15.557 9.535 53.226-13.325 32.234-16.945-2.308 12.217-54.51 5.813-18.454 3.656 16.785-5.414 11.466-16.528 27.448-15.762 16.61-2.935 58.199-15.152 54.734-24.948-17.572 11.158-63.329 29.06-69.554 20.626 18.223 5.633 40.663-18.566 8.994-5.22-5.377-13.199 42.673-25.308 33.358-42.52 19.527 3.804 30.166-29.75 8.625-15.595-7.596 25.346-37.86-12.273-33.166 13.738 7.403 2.981 11.275 19.082 18.136 6.775 2.01 17.62-30.837 17.326-27.935 4.853-11.236.174-10.182-11.363-21.494-10.672 11.4-7.242 40.006-61.625 18.013-29.598-2.797 15.559-20.247 18.015-16.229 4.759-8.681 10.827-8.708 52.527-18.515 20.586-21.749 23.826 3.125-27.854-13.025-23.06-16.464-20.359 15.977 36.245-6.687 14.181-9.552 13.609-15.956 16.514-26.393 14.617-4.504 7.892-22.94-6.927-30.336 3.767-27.354-4.969 17.629 29.724 6.864 25.255 17.588 34.219-29.041-16.723-28.43-33.383-16.477-5.3-6.189-52.294-22.979-36.281 12.249 20.85 21.325 45.827 34.481 67.24 14.415 12.008 26.574 34.149 5.876 9.135-7.628-10.174-25.646-29.196-8.375-6.325 8.491 10.209 18.923 20.603 24.118 32.566z" fill="url(#L)"/><use href="#u" fill="#e3e3e3" class="U"/><use href="#v" fill="#54535a"/><g class="H M"><use href="#O" x="52.489" y="79.043" class="N"/><use href="#w" class="V"/></g><use href="#N" transform="matrix(.675315 .02532 -.011248 .708268 -488.0738 126.9378)" opacity=".658" class="F G K"/><g fill="#94939a" class="B"><use href="#P"/><use href="#P" x="-11.733" y="-54.033"/><use href="#P" x="-16.673" y="-51.563"/><use href="#P" x="-9.263" y="-7.101"/><use href="#P" x="-92.011" y="-33.037"/><use href="#P" x="282.603" y="-68.121"/></g><use href="#x" class="I"/><use href="#y" class="D"/><use href="#z" fill="#98989e"/><use href="#AA" class="H"/><use href="#AB" opacity=".596" fill="url(#W)"/><use href="#AC" opacity=".85" fill="#fff"/><use href="#AD" class="E P"/><use href="#AE" class="Q"/><use href="#AF" class="C"/><use href="#AG" class="E P"/><use href="#AH" class="Q"/><use href="#AI" fill="#f3f3f4"/><use href="#AJ" class="C"/></g><use href="#AK" class="L W"/></g></svg>