<?xml version="1.0" encoding="iso-8859-1"?>
<!-- Generator: Adobe Illustrator 19.0.0, SVG Export Plug-In . SVG Version: 6.00 Build 0)  -->
<svg version="1.1" id="Layer_1" xmlns="http://www.w3.org/2000/svg" x="0px" y="0px"
     viewBox="0 0 512 512" style="enable-background:new 0 0 512 512;" xml:space="preserve">
<path style="fill:#54CCFF;" d="M406.65,119.9c-18.9-17.1-46.501-15-63.001,1.8c-16.8,17.1-17.999,46.201,3.001,65.4
	c33.6,30.3,50.4,76.5,42.299,123.001C378.15,373.1,323.249,421.7,256.05,422c-69,0-121.8-49.799-132.599-109.799
	c-8.701-46.501,7.2-93.301,41.999-125.101c21-19.199,19.801-48.3,3.001-65.4c-16.5-16.8-44.101-18.9-63.301-1.5
	c-52.798,47.999-80.4,118.801-72.9,190.499C44.55,424.701,140.55,511.7,256.05,512c0.3,0,0.3,0,0.601,0
	c114.3,0,207.9-87.299,222.299-193.801C488.85,244.1,461.849,169.999,406.65,119.9z"/>
<path style="fill:#4BB8E6;" d="M478.949,318.199C464.55,424.701,370.95,512,256.65,512c-0.3,0-0.3,0-0.601,0v-90
	c67.2-0.3,122.1-48.9,132.9-111.899C397.05,263.6,380.25,217.4,346.65,187.1c-21-19.199-19.801-48.3-3.001-65.4
	c16.5-16.8,44.101-18.9,63.001-1.8C461.849,169.999,488.85,244.1,478.949,318.199z"/>
<path style="fill:#54CCFF;" d="M256.05,0c-24.901,0-45,20.099-45,45v182c0,24.901,20.099,45,45,45s45-20.099,45-45V45
	C301.05,20.099,280.95,0,256.05,0z"/>
<path style="fill:#4BB8E6;" d="M301.05,45v182c0,24.901-20.099,45-45,45V0C280.95,0,301.05,20.099,301.05,45z"/>
<g>
</g>
<g>
</g>
<g>
</g>
<g>
</g>
<g>
</g>
<g>
</g>
<g>
</g>
<g>
</g>
<g>
</g>
<g>
</g>
<g>
</g>
<g>
</g>
<g>
</g>
<g>
</g>
<g>
</g>
</svg>
